<?xml version="1.0" encoding="utf-8"?>
<!-- Generator: Adobe Illustrator 16.0.0, SVG Export Plug-In . SVG Version: 6.00 Build 0)  -->
<!DOCTYPE svg PUBLIC "-//W3C//DTD SVG 1.1//EN" "http://www.w3.org/Graphics/SVG/1.1/DTD/svg11.dtd">
<svg version="1.1" id="Layer_1" xmlns="http://www.w3.org/2000/svg" xmlns:xlink="http://www.w3.org/1999/xlink" x="0px" y="0px"
	 width="180.814px" height="180.814px" viewBox="0 0 180.814 180.814" enable-background="new 0 0 180.814 180.814"
	 xml:space="preserve">
<g>
	<circle fill="none" stroke="#02dfef" stroke-width="4.559" stroke-miterlimit="10" cx="90.407" cy="90.407" r="88.128"/>
	<path fill="none" stroke="#02dfef" stroke-width="4.559" stroke-miterlimit="10" d="M128.802,71.685
		c-0.76,0-1.515,0.028-2.27,0.088c-3.423-10.247-13.094-17.475-24.279-17.475c-1.089,0-2.532,0.076-3.936,0.219
		c-5.922-5.633-13.933-9.091-22.752-9.091c-17.481,0-31.787,13.588-32.938,30.778c-6.87,4.693-11.294,12.159-11.294,19.462
		c0,13.22,10.977,23.974,24.468,23.974h73c13.905,0,25.652-10.977,25.652-23.974C154.454,82.666,142.707,71.685,128.802,71.685z"/>
</g>
</svg>
